<svg width="216" height="42" viewBox="0 0 216 42" fill="none" xmlns="http://www.w3.org/2000/svg">
<g clip-path="url(#clip0_16_322)">
<path d="M35.0065 13.2912C35.3135 13.6 35.7048 13.8103 36.1308 13.8954C36.5567 13.9806 36.9982 13.9369 37.3995 13.7698C37.8008 13.6028 38.1437 13.3198 38.385 12.9567C38.6263 12.5936 38.7551 12.1668 38.7551 11.7302C38.7551 11.2936 38.6263 10.8667 38.385 10.5036C38.1437 10.1406 37.8008 9.85763 37.3995 9.69049C36.9982 9.52341 36.5567 9.4797 36.1308 9.56489C35.7048 9.65009 35.3135 9.8604 35.0065 10.1692C34.5946 10.5832 34.3633 11.1447 34.3633 11.7302C34.3633 12.3157 34.5946 12.8772 35.0065 13.2912Z" fill="white"/>
<path d="M26.4419 17.4602L12.8377 31.1376C12.5486 31.4283 12.3192 31.7733 12.1627 32.1532C12.0062 32.533 11.9256 32.94 11.9256 33.3512C11.9256 33.7623 12.006 34.1694 12.1625 34.5492C12.3189 34.929 12.5483 35.2742 12.8375 35.5649C13.1266 35.8557 13.4698 36.0862 13.8476 36.2436C14.2254 36.401 14.6303 36.4819 15.0392 36.482C15.4481 36.482 15.8531 36.401 16.2309 36.2437C16.6087 36.0865 16.952 35.8559 17.2411 35.5652L22.9911 29.7843C23.2234 29.6103 23.5102 29.5261 23.7992 29.5471C24.0882 29.5679 24.36 29.6927 24.5652 29.8983C24.7942 30.1274 24.9241 30.4381 24.9266 30.763C24.929 31.0878 24.8037 31.4006 24.578 31.633L20.369 35.8647C19.785 36.4518 19.457 37.2481 19.457 38.0784C19.4571 38.9087 19.7853 39.7049 20.3692 40.292C20.9532 40.8791 21.7453 41.2088 22.5711 41.2088C23.397 41.2087 24.189 40.8789 24.7729 40.2917L36.5052 28.4958C36.6176 28.3827 36.7511 28.2931 36.8981 28.2319C37.045 28.1706 37.2024 28.1392 37.3615 28.1392C37.5205 28.1392 37.6779 28.1706 37.8249 28.2319C37.9717 28.2931 38.1053 28.3827 38.2177 28.4958C38.3302 28.6088 38.4193 28.743 38.4802 28.8907C38.5411 29.0384 38.5724 29.1968 38.5724 29.3567C38.5724 29.5165 38.5411 29.6748 38.4802 29.8225C38.4193 29.9703 38.3302 30.1045 38.2177 30.2175L37.4932 30.9428C36.9093 31.53 36.5813 32.3262 36.5814 33.1566C36.5814 33.9869 36.9095 34.7831 37.4936 35.3702C38.0775 35.9572 38.8696 36.287 39.6955 36.2869C40.5213 36.2869 41.3132 35.957 41.8972 35.3699L46.8179 30.4227C47.4019 29.8357 47.73 29.0394 47.7301 28.2091C47.7301 27.3788 47.4021 26.5825 46.8182 25.9954C46.2342 25.4082 45.4423 25.0784 44.6164 25.0783C43.7905 25.0783 42.9985 25.408 42.4145 25.9951L41.7005 26.7155C41.4733 26.9437 41.1652 27.072 40.8439 27.072C40.5227 27.0719 40.2147 26.9436 39.9876 26.7151C39.7604 26.4868 39.633 26.177 39.633 25.8541C39.633 25.5311 39.7607 25.2214 39.9879 24.993L47.3431 17.602C47.9271 17.0149 48.2551 16.2185 48.255 15.3883C48.2549 14.5579 47.9268 13.7617 47.3429 13.1747C46.7588 12.5875 45.9668 12.2578 45.141 12.2579C44.3151 12.2579 43.5231 12.5878 42.9391 13.1749L28.0607 28.1304C27.8295 28.3573 27.5186 28.4834 27.1955 28.4811C26.8724 28.4788 26.5632 28.3483 26.3353 28.118C26.1308 27.9114 26.007 27.6378 25.9864 27.3471C25.9658 27.0564 26.0498 26.7679 26.2231 26.5343L35.6869 17.0208C36.2583 16.4311 36.5757 15.6389 36.5703 14.8155C36.5649 13.9923 36.2373 13.2042 35.6582 12.6221C35.0791 12.0399 34.2954 11.7105 33.4765 11.7051C32.6576 11.6997 31.8695 12.0187 31.2829 12.5932L29.4925 14.3932C29.2624 14.5296 28.9938 14.5854 28.7287 14.5519C28.4637 14.5185 28.2171 14.3977 28.0276 14.2084C27.7985 13.9793 27.6686 13.6686 27.6662 13.3437C27.6638 13.0188 27.7891 12.7061 28.0147 12.4737L35.074 5.37593C35.6454 4.78616 35.9627 3.99386 35.9573 3.17061C35.952 2.34727 35.6242 1.55924 35.0453 0.977085C34.4662 0.394934 33.6823 0.065512 32.8635 0.0601257C32.0446 0.0547394 31.2566 0.373817 30.67 0.948273L18.9352 12.7442C18.7081 12.9725 18.4 13.1008 18.0788 13.1007C17.7575 13.1006 17.4496 12.9723 17.2224 12.7439C16.9953 12.5155 16.8677 12.2057 16.8678 11.8828C16.8679 11.5599 16.9956 11.2501 17.2227 11.0218L20.5185 7.71077C20.8164 7.42214 21.054 7.07673 21.2175 6.69464C21.3811 6.31263 21.4672 5.90165 21.471 5.4857C21.4749 5.06985 21.3961 4.65732 21.2396 4.27233C21.083 3.88733 20.8518 3.53756 20.5592 3.24345C20.2667 2.94934 19.9188 2.71679 19.5359 2.55939C19.1529 2.40198 18.7426 2.3229 18.3289 2.32675C17.9153 2.33051 17.5065 2.4172 17.1265 2.58162C16.7465 2.74603 16.4029 2.98491 16.1158 3.2844L8.62563 10.8142C8.04168 11.4012 7.71354 12.1975 7.71346 13.0278C7.71346 13.4388 7.79391 13.846 7.95037 14.2258C8.10683 14.6056 8.33622 14.9508 8.62537 15.2415C8.91444 15.5322 9.25771 15.7628 9.63552 15.9201C10.0133 16.0775 10.4182 16.1585 10.8271 16.1586C11.6529 16.1586 12.445 15.8288 13.029 15.2418L13.7419 14.5251C13.969 14.2967 14.277 14.1684 14.5982 14.1683C14.9194 14.1682 15.2276 14.2965 15.4547 14.5248C15.6819 14.7531 15.8095 15.0629 15.8096 15.3858C15.8096 15.7087 15.6821 16.0185 15.455 16.2468L8.09974 23.638C7.52836 24.2278 7.21099 25.0201 7.21638 25.8433C7.22176 26.6666 7.54939 27.4546 8.12846 28.0368C8.70754 28.6189 9.49129 28.9483 10.3102 28.9538C11.1291 28.9592 11.9171 28.6401 12.5037 28.0656L24.5314 15.9751C24.7627 15.7482 25.0736 15.6223 25.3968 15.6247C25.7199 15.6271 26.029 15.7577 26.2568 15.988C26.4452 16.1783 26.5655 16.426 26.599 16.6924C26.6325 16.9588 26.5773 17.2288 26.4419 17.4602Z" fill="white"/>
</g>
<path d="M58.496 9.696H66.896V11.432L64.46 11.796L67.988 24.424L68.632 27.532L69.276 24.424L72.272 14.176L71.488 11.796L69.64 11.432V9.696H78.404V11.432L75.716 11.796L79.216 24.424L79.972 27.784L80.56 24.424L83.752 11.796L81.232 11.432V9.696H87.98V11.432L86.188 11.796L80.868 30.64H77.172L73.308 17.564L69.612 30.64H65.972L60.204 11.824L58.496 11.432V9.696ZM88.5568 28.82L90.7688 28.54V11.796L88.6688 11.404V9.696H92.7288C93.0835 9.696 93.4755 9.68667 93.9048 9.668C94.3342 9.64933 94.6608 9.63066 94.8848 9.612C95.8555 9.53733 96.6582 9.5 97.2928 9.5C99.2155 9.5 100.756 9.696 101.913 10.088C103.07 10.48 103.91 11.0773 104.433 11.88C104.956 12.6827 105.217 13.7373 105.217 15.044C105.217 16.332 104.872 17.5267 104.181 18.628C103.49 19.7293 102.492 20.4853 101.185 20.896C101.932 21.2133 102.594 21.792 103.173 22.632C103.752 23.472 104.368 24.564 105.021 25.908C105.488 26.8227 105.842 27.4853 106.085 27.896C106.346 28.288 106.598 28.512 106.841 28.568L107.765 28.848V30.5H103.005C102.706 30.5 102.389 30.2013 102.053 29.604C101.736 28.988 101.316 28.0267 100.793 26.72C100.177 25.1893 99.6448 23.9947 99.1968 23.136C98.7488 22.2773 98.2728 21.7453 97.7688 21.54H94.8848V28.54L97.4608 28.82V30.5H88.5568V28.82ZM97.4608 19.832C98.5248 19.832 99.3555 19.4493 99.9528 18.684C100.55 17.9187 100.849 16.7707 100.849 15.24C100.849 13.8773 100.55 12.8693 99.9528 12.216C99.3742 11.5627 98.3662 11.236 96.9288 11.236C96.4062 11.236 95.9582 11.264 95.5848 11.32C95.2302 11.3573 94.9968 11.376 94.8848 11.376V19.776C95.1088 19.8133 95.6502 19.832 96.5088 19.832H97.4608ZM111.313 11.796L108.933 11.432V9.696H117.893V11.432L115.429 11.796V28.54L117.893 28.848V30.5H108.933V28.82L111.313 28.54V11.796ZM127.052 11.544L123.048 11.684L121.956 17.788H119.604L120.08 9.696H138.14L138.476 17.788H136.264L135.172 11.684L131.224 11.544V28.54L135.144 28.82V30.5H123.468V28.82L127.052 28.54V11.544ZM142.394 11.796L140.154 11.432V9.696H155.078L155.442 14.4H153.482L152.558 11.628L146.51 11.376V18.908L150.402 18.824L150.85 16.528H152.642V23.304H150.85L150.402 20.896L146.51 20.812V28.708L153.286 28.372L154.91 24.788L157.01 25.376L156.282 30.5H140.182V28.82L142.394 28.54V11.796ZM157.045 14.96H164.27V16.556L162.31 16.892L164.382 24.34L165.054 27.392L165.669 24.312L168.19 14.96H171.577L174.35 24.312L175.022 27.392L175.694 24.34L177.654 16.92L175.61 16.556V14.96H181.602V16.556L180.174 16.864L175.918 30.724H172.698L169.87 21.652L169.226 18.32L168.722 21.652L166.118 30.724H162.87L158.39 16.864L157.045 16.556V14.96ZM189.269 30.808C186.805 30.808 184.966 30.0893 183.753 28.652C182.558 27.196 181.961 25.2173 181.961 22.716C181.961 21.036 182.269 19.58 182.885 18.348C183.52 17.116 184.406 16.1733 185.545 15.52C186.684 14.8667 188 14.54 189.493 14.54C191.36 14.54 192.797 15.0347 193.805 16.024C194.813 16.9947 195.336 18.3853 195.373 20.196C195.373 21.428 195.298 22.3427 195.149 22.94H186.049C186.124 24.6387 186.525 25.964 187.253 26.916C187.981 27.8493 189.017 28.316 190.361 28.316C191.089 28.316 191.836 28.1947 192.601 27.952C193.385 27.7093 194.001 27.42 194.449 27.084L195.149 28.624C194.645 29.1653 193.824 29.6693 192.685 30.136C191.565 30.584 190.426 30.808 189.269 30.808ZM191.453 21.26C191.49 20.7373 191.509 20.336 191.509 20.056C191.509 17.5733 190.678 16.332 189.017 16.332C188.102 16.332 187.393 16.696 186.889 17.424C186.385 18.152 186.105 19.4307 186.049 21.26H191.453ZM199.232 10.032L197.16 9.668V8.156L202.34 7.54H202.396L203.152 8.072V28.596L205.196 28.82V30.5H197.272V28.82L199.232 28.568V10.032ZM208.747 10.032L206.675 9.668V8.156L211.855 7.54H211.911L212.667 8.072V28.596L214.711 28.82V30.5H206.787V28.82L208.747 28.568V10.032Z" fill="white"/>
<defs>
<clipPath id="clip0_16_322">
<rect width="55" height="42" fill="white"/>
</clipPath>
</defs>
</svg>
