<svg width="18" height="18" viewBox="0 0 18 18" fill="none" xmlns="http://www.w3.org/2000/svg">
<path d="M16.5011 9.65629C16.356 11.3662 15.6289 12.9752 14.4403 14.2165C13.2518 15.4577 11.6732 16.2566 9.96662 16.4805C8.25999 16.7045 6.52786 16.34 5.05759 15.4476C3.58732 14.5552 2.4673 13.1885 1.88333 11.5743C1.29937 9.9601 1.28657 8.19537 1.84706 6.5729C2.40754 4.95044 3.50763 3.56776 4.9648 2.65427C6.42197 1.74078 8.14863 1.35139 9.85833 1.55069C11.568 1.75 13.158 2.52602 14.3644 3.75002H12.0156C11.8161 3.75002 11.6247 3.82904 11.4836 3.96969C11.3425 4.11034 11.2632 4.30111 11.2632 4.50002C11.2632 4.69893 11.3425 4.8897 11.4836 5.03035C11.6247 5.17101 11.8161 5.25002 12.0156 5.25002H15.1326C15.503 5.24983 15.8583 5.10303 16.1203 4.84188C16.3822 4.58073 16.5295 4.22659 16.5297 3.85727V0.750004C16.5297 0.55109 16.4504 0.360324 16.3093 0.219671C16.1682 0.079018 15.9769 0 15.7773 0C15.5778 0 15.3864 0.079018 15.2453 0.219671C15.1042 0.360324 15.025 0.55109 15.025 0.750004V2.30851C13.5118 0.960551 11.5867 0.160864 9.56103 0.0387836C7.53539 -0.0832963 5.52767 0.47937 3.86258 1.63578C2.19748 2.79219 0.972384 4.47473 0.385417 6.41127C-0.20155 8.3478 -0.116062 10.4251 0.628056 12.3072C1.37217 14.1893 2.73141 15.7662 4.48593 16.7827C6.24044 17.7993 8.28765 18.1961 10.2965 17.909C12.3052 17.6219 14.1582 16.6677 15.5555 15.2008C16.9529 13.7338 17.813 11.8397 17.9968 9.82505C18.0065 9.7206 17.9943 9.61529 17.9609 9.51581C17.9275 9.41633 17.8738 9.32487 17.803 9.24725C17.7322 9.16964 17.646 9.10758 17.5498 9.06501C17.4536 9.02245 17.3496 9.00032 17.2444 9.00004C17.0609 8.99784 16.8831 9.06382 16.7457 9.18513C16.6083 9.30645 16.5211 9.47441 16.5011 9.65629Z" fill="white"/>
</svg>
